<svg width="32" height="32" viewBox="0 0 32 32" fill="none" xmlns="http://www.w3.org/2000/svg">
<g id="ArrowLeft">
<path id="Vector" d="M14.7072 25.7071C14.8947 25.5196 15 25.2652 15 25C15 24.7348 14.8947 24.4805 14.7072 24.2929L7.41425 17H27.0001C27.2653 17 27.5196 16.8947 27.7072 16.7071C27.8947 16.5196 28.0001 16.2652 28.0001 16C28.0001 15.7348 27.8947 15.4805 27.7072 15.2929C27.5196 15.1054 27.2653 15 27.0001 15H7.41425L14.7072 7.70712C14.8001 7.61425 14.8737 7.50401 14.924 7.38268C14.9742 7.26135 15.0001 7.1313 15.0001 6.99998C15.0001 6.86866 14.9742 6.73862 14.9239 6.61729C14.8737 6.49596 14.8 6.38573 14.7072 6.29287C14.6143 6.20001 14.504 6.12636 14.3827 6.07611C14.2614 6.02586 14.1313 5.99999 14 6C13.8687 6.00001 13.7387 6.02588 13.6173 6.07614C13.496 6.1264 13.3858 6.20007 13.2929 6.29293L4.29291 15.2929C4.28964 15.2962 4.28696 15.2998 4.28375 15.3031C4.264 15.3233 4.24484 15.3441 4.22687 15.366C4.21683 15.3782 4.20807 15.3911 4.1987 15.4037C4.18857 15.4173 4.17804 15.4306 4.16858 15.4447C4.15884 15.4592 4.15039 15.4743 4.14148 15.4893C4.13369 15.5023 4.12548 15.5151 4.11825 15.5286C4.11023 15.5436 4.10339 15.5591 4.09616 15.5744C4.08941 15.5887 4.0823 15.6027 4.07623 15.6173C4.07013 15.6321 4.06518 15.6472 4.05981 15.6623C4.05413 15.678 4.04809 15.6936 4.04321 15.7097C4.03869 15.7247 4.03537 15.7399 4.03155 15.755C4.0274 15.7715 4.02276 15.7879 4.01944 15.8047C4.01599 15.8221 4.01391 15.8397 4.01141 15.8572C4.0093 15.872 4.0065 15.8864 4.00504 15.9013C4.0018 15.9342 4.00006 15.9671 4.00006 16C4.00006 16.033 4.0018 16.0659 4.00504 16.0987C4.0065 16.1136 4.00931 16.1281 4.01141 16.1428C4.01391 16.1604 4.01599 16.1779 4.01944 16.1954C4.02276 16.2122 4.0274 16.2285 4.03155 16.245C4.03537 16.2602 4.03869 16.2754 4.04321 16.2903C4.04809 16.3064 4.05413 16.322 4.05981 16.3378C4.06519 16.3528 4.07013 16.3679 4.07623 16.3827C4.0823 16.3973 4.08941 16.4113 4.09616 16.4256C4.10339 16.4409 4.11023 16.4564 4.11825 16.4715C4.12548 16.4849 4.13369 16.4977 4.14148 16.5108C4.15039 16.5257 4.15884 16.5409 4.16858 16.5554C4.17804 16.5695 4.18856 16.5828 4.1987 16.5963C4.20807 16.6089 4.21683 16.6219 4.22687 16.6341C4.24515 16.6563 4.26465 16.6775 4.28479 16.6981C4.28763 16.701 4.29001 16.7042 4.29291 16.7071L13.2929 25.7071C13.3858 25.8 13.496 25.8736 13.6173 25.9239C13.7387 25.9742 13.8687 26 14.0001 26C14.1314 26 14.2614 25.9742 14.3828 25.9239C14.5041 25.8736 14.6144 25.8 14.7072 25.7071Z" fill="#0B63E5"/>
</g>
</svg>
