<svg width="48" height="48" viewBox="0 0 48 48" fill="none" xmlns="http://www.w3.org/2000/svg">
<g id="material-symbols:search-rounded">
<path id="Vector" d="M37.8 40.6L26.6 29.4C25.6 30.2 24.45 30.8333 23.15 31.3C21.85 31.7667 20.4667 32 19 32C15.3667 32 12.292 30.7413 9.776 28.224C7.26 25.7067 6.00133 22.632 6 19C6 15.3667 7.25867 12.292 9.776 9.776C12.2933 7.26 15.368 6.00133 19 6C22.6333 6 25.708 7.25867 28.224 9.776C30.74 12.2933 31.9987 15.368 32 19C32 20.4667 31.7667 21.85 31.3 23.15C30.8333 24.45 30.2 25.6 29.4 26.6L40.65 37.85C41.0167 38.2167 41.2 38.6667 41.2 39.2C41.2 39.7333 41 40.2 40.6 40.6C40.2333 40.9667 39.7667 41.15 39.2 41.15C38.6333 41.15 38.1667 40.9667 37.8 40.6ZM19 28C21.5 28 23.6253 27.1247 25.376 25.374C27.1267 23.6233 28.0013 21.4987 28 19C28 16.5 27.1247 14.3747 25.374 12.624C23.6233 10.8733 21.4987 9.99867 19 10C16.5 10 14.3747 10.8753 12.624 12.626C10.8733 14.3767 9.99867 16.5013 10 19C10 21.5 10.8753 23.6253 12.626 25.376C14.3767 27.1267 16.5013 28.0013 19 28Z" fill="white"/>
</g>
</svg>
