<svg width="0" height="0" class="hidden">
  <symbol fill="none" xmlns="http://www.w3.org/2000/svg" viewBox="0 0 12 20" id="facebook">
    <g id="Group">
      <path id="f 1" d="M7.54882 20V10.8777H10.6096L11.0688 7.32156H7.54882V5.05147C7.54882 4.0222 7.83346 3.32076 9.31111 3.32076L11.1926 3.31999V0.13923C10.8673 0.0969453 9.75033 0 8.45033 0C5.73573 0 3.87727 1.65697 3.87727 4.69927V7.32156H0.807251V10.8777H3.87727V20H7.54882Z" fill="white"></path>
    </g>
  </symbol>
  <symbol fill="none" xmlns="http://www.w3.org/2000/svg" viewBox="0 0 103 16" id="long-arrow">
    <path id="Arrow 4" d="M102.207 8.70711C102.598 8.31658 102.598 7.68342 102.207 7.29289L95.8432 0.928932C95.4527 0.538408 94.8195 0.538408 94.429 0.928932C94.0385 1.31946 94.0385 1.95262 94.429 2.34315L100.086 8L94.429 13.6569C94.0385 14.0474 94.0385 14.6805 94.429 15.0711C94.8195 15.4616 95.4527 15.4616 95.8432 15.0711L102.207 8.70711ZM0.500061 9H101.5V7H0.500061V9Z" fill="#0B63E5"></path>
  </symbol>
  <symbol fill="none" xmlns="http://www.w3.org/2000/svg" viewBox="0 0 40 40" id="Stack">
    <g id="Stack">
      <path id="Vector" opacity="0.2" d="M5.00006 12.5L20.0001 21.25L35.0001 12.5L20.0001 3.75L5.00006 12.5Z" fill="#F249C8"></path>
      <path id="Vector_2" d="M5.00006 27.5L20.0001 36.25L35.0001 27.5" stroke="#F249C8" stroke-width="2.5" stroke-linecap="round" stroke-linejoin="round"></path>
      <path id="Vector_3" d="M5.00006 20L20.0001 28.75L35.0001 20" stroke="#F249C8" stroke-width="2.5" stroke-linecap="round" stroke-linejoin="round"></path>
      <path id="Vector_4" d="M5.00006 12.5L20.0001 21.25L35.0001 12.5L20.0001 3.75L5.00006 12.5Z" stroke="#F249C8" stroke-width="2.5" stroke-linecap="round" stroke-linejoin="round"></path>
    </g>
  </symbol>
  <symbol fill="none" xmlns="http://www.w3.org/2000/svg" viewBox="0 0 48 48" id="logo-icon">
    <g id="Icon" clip-path="url(#clip0_23_634)">
      <g id="Group">
        <path id="Vector" d="M24 46C36.1506 46 46 36.1506 46 24C46 11.8494 36.1506 2 24 2C11.8494 2 2 11.8494 2 24C2 36.1506 11.8494 46 24 46Z" fill="#CEE0FA" stroke="#CEE0FA" stroke-width="4" stroke-linecap="round" stroke-linejoin="round"></path>
        <path id="Vector_2" d="M23.722 10L14.446 23.494C13.886 24.306 13.606 24.712 13.626 25.05C13.6329 25.1952 13.6713 25.3372 13.7387 25.466C13.806 25.5949 13.9007 25.7075 14.016 25.796C14.286 26 14.776 26 15.764 26H23.722V36L32.998 22.506C33.558 21.694 33.838 21.288 33.818 20.95C33.8111 20.8048 33.7727 20.6628 33.7053 20.534C33.638 20.4051 33.5433 20.2925 33.428 20.204C33.158 20 32.668 20 31.68 20H23.722V10Z" fill="#0B63E5" stroke="#0B63E5" stroke-width="2" stroke-linecap="round" stroke-linejoin="round"></path>
      </g>
    </g>
    <defs>
      <clipPath id="clip0_23_634">
        <rect width="48" height="48" fill="white"></rect>
      </clipPath>
    </defs>
  </symbol>
  <svg width="0" height="0" class="hidden">
  <symbol fill="none" xmlns="http://www.w3.org/2000/svg" viewBox="0 0 32 32" id="ArrowLeft">
    <g id="ArrowLeft">
      <path id="Vector" d="M14.7072 25.7071C14.8947 25.5196 15 25.2652 15 25C15 24.7348 14.8947 24.4805 14.7072 24.2929L7.41425 17H27.0001C27.2653 17 27.5196 16.8947 27.7072 16.7071C27.8947 16.5196 28.0001 16.2652 28.0001 16C28.0001 15.7348 27.8947 15.4805 27.7072 15.2929C27.5196 15.1054 27.2653 15 27.0001 15H7.41425L14.7072 7.70712C14.8001 7.61425 14.8737 7.50401 14.924 7.38268C14.9742 7.26135 15.0001 7.1313 15.0001 6.99998C15.0001 6.86866 14.9742 6.73862 14.9239 6.61729C14.8737 6.49596 14.8 6.38573 14.7072 6.29287C14.6143 6.20001 14.504 6.12636 14.3827 6.07611C14.2614 6.02586 14.1313 5.99999 14 6C13.8687 6.00001 13.7387 6.02588 13.6173 6.07614C13.496 6.1264 13.3858 6.20007 13.2929 6.29293L4.29291 15.2929C4.28964 15.2962 4.28696 15.2998 4.28375 15.3031C4.264 15.3233 4.24484 15.3441 4.22687 15.366C4.21683 15.3782 4.20807 15.3911 4.1987 15.4037C4.18857 15.4173 4.17804 15.4306 4.16858 15.4447C4.15884 15.4592 4.15039 15.4743 4.14148 15.4893C4.13369 15.5023 4.12548 15.5151 4.11825 15.5286C4.11023 15.5436 4.10339 15.5591 4.09616 15.5744C4.08941 15.5887 4.0823 15.6027 4.07623 15.6173C4.07013 15.6321 4.06518 15.6472 4.05981 15.6623C4.05413 15.678 4.04809 15.6936 4.04321 15.7097C4.03869 15.7247 4.03537 15.7399 4.03155 15.755C4.0274 15.7715 4.02276 15.7879 4.01944 15.8047C4.01599 15.8221 4.01391 15.8397 4.01141 15.8572C4.0093 15.872 4.0065 15.8864 4.00504 15.9013C4.0018 15.9342 4.00006 15.9671 4.00006 16C4.00006 16.033 4.0018 16.0659 4.00504 16.0987C4.0065 16.1136 4.00931 16.1281 4.01141 16.1428C4.01391 16.1604 4.01599 16.1779 4.01944 16.1954C4.02276 16.2122 4.0274 16.2285 4.03155 16.245C4.03537 16.2602 4.03869 16.2754 4.04321 16.2903C4.04809 16.3064 4.05413 16.322 4.05981 16.3378C4.06519 16.3528 4.07013 16.3679 4.07623 16.3827C4.0823 16.3973 4.08941 16.4113 4.09616 16.4256C4.10339 16.4409 4.11023 16.4564 4.11825 16.4715C4.12548 16.4849 4.13369 16.4977 4.14148 16.5108C4.15039 16.5257 4.15884 16.5409 4.16858 16.5554C4.17804 16.5695 4.18856 16.5828 4.1987 16.5963C4.20807 16.6089 4.21683 16.6219 4.22687 16.6341C4.24515 16.6563 4.26465 16.6775 4.28479 16.6981C4.28763 16.701 4.29001 16.7042 4.29291 16.7071L13.2929 25.7071C13.3858 25.8 13.496 25.8736 13.6173 25.9239C13.7387 25.9742 13.8687 26 14.0001 26C14.1314 26 14.2614 25.9742 14.3828 25.9239C14.5041 25.8736 14.6144 25.8 14.7072 25.7071Z" fill="#0B63E5"></path>
    </g>
  </symbol>
</svg>

<svg width="0" height="0" class="hidden">
  <symbol fill="none" xmlns="http://www.w3.org/2000/svg" viewBox="0 0 103 16" id="long-arrow">
    <path id="Arrow 4" d="M102.207 8.70711C102.598 8.31658 102.598 7.68342 102.207 7.29289L95.8432 0.928932C95.4527 0.538408 94.8195 0.538408 94.429 0.928932C94.0385 1.31946 94.0385 1.95262 94.429 2.34315L100.086 8L94.429 13.6569C94.0385 14.0474 94.0385 14.6805 94.429 15.0711C94.8195 15.4616 95.4527 15.4616 95.8432 15.0711L102.207 8.70711ZM0.500061 9H101.5V7H0.500061V9Z" fill="#0B63E5"></path>
  </symbol>
</svg>
  <symbol fill="none" xmlns="http://www.w3.org/2000/svg" viewBox="0 0 32 32" id="ArrowRight">
    <g id="ArrowRight">
      <path id="Vector" d="M17.2929 25.7071C17.1054 25.5196 17.0001 25.2652 17.0001 25C17.0001 24.7348 17.1054 24.4805 17.2929 24.2929L24.5859 17H5.00006C4.73484 17 4.48049 16.8947 4.29295 16.7071C4.10542 16.5196 4.00006 16.2652 4.00006 16C4.00006 15.7348 4.10542 15.4805 4.29295 15.2929C4.48049 15.1054 4.73484 15 5.00006 15H24.5859L17.2929 7.70712C17.2001 7.61425 17.1264 7.50401 17.0761 7.38268C17.0259 7.26135 17 7.1313 17 6.99998C17 6.86866 17.0259 6.73862 17.0762 6.61729C17.1264 6.49596 17.2001 6.38573 17.293 6.29287C17.3858 6.20001 17.4961 6.12636 17.6174 6.07611C17.7387 6.02586 17.8688 5.99999 18.0001 6C18.1314 6.00001 18.2615 6.02588 18.3828 6.07614C18.5041 6.1264 18.6144 6.20007 18.7072 6.29293L27.7072 15.2929C27.7105 15.2962 27.7132 15.2998 27.7164 15.3031C27.7361 15.3233 27.7553 15.3441 27.7733 15.366C27.7833 15.3782 27.7921 15.3911 27.8014 15.4037C27.8116 15.4173 27.8221 15.4306 27.8315 15.4447C27.8413 15.4592 27.8497 15.4743 27.8586 15.4893C27.8664 15.5023 27.8746 15.5151 27.8819 15.5286C27.8899 15.5436 27.8967 15.5591 27.904 15.5744C27.9107 15.5887 27.9178 15.6027 27.9239 15.6173C27.93 15.6321 27.9349 15.6472 27.9403 15.6623C27.946 15.678 27.952 15.6936 27.9569 15.7097C27.9614 15.7247 27.9648 15.7399 27.9686 15.755C27.9727 15.7715 27.9774 15.7879 27.9807 15.8047C27.9841 15.8221 27.9862 15.8397 27.9887 15.8572C27.9908 15.872 27.9936 15.8864 27.9951 15.9013C27.9983 15.9342 28.0001 15.9671 28.0001 16C28.0001 16.033 27.9983 16.0659 27.9951 16.0987C27.9936 16.1136 27.9908 16.1281 27.9887 16.1428C27.9862 16.1604 27.9841 16.1779 27.9807 16.1954C27.9774 16.2122 27.9727 16.2285 27.9686 16.245C27.9648 16.2602 27.9614 16.2754 27.9569 16.2903C27.952 16.3064 27.946 16.322 27.9403 16.3378C27.9349 16.3528 27.93 16.3679 27.9239 16.3827C27.9178 16.3973 27.9107 16.4113 27.904 16.4256C27.8967 16.4409 27.8899 16.4564 27.8819 16.4715C27.8746 16.4849 27.8664 16.4977 27.8586 16.5108C27.8497 16.5257 27.8413 16.5409 27.8315 16.5554C27.8221 16.5695 27.8116 16.5828 27.8014 16.5963C27.792 16.6089 27.7833 16.6219 27.7733 16.6341C27.755 16.6563 27.7355 16.6775 27.7153 16.6981C27.7125 16.701 27.7101 16.7042 27.7072 16.7071L18.7072 25.7071C18.6144 25.8 18.5041 25.8736 18.3828 25.9239C18.2614 25.9742 18.1314 26 18.0001 26C17.8687 26 17.7387 25.9742 17.6173 25.9239C17.496 25.8736 17.3858 25.8 17.2929 25.7071Z" fill="#0B63E5"></path>
    </g>
  </symbol>

  
  <symbol fill="none" xmlns="http://www.w3.org/2000/svg" viewBox="0 0 169 92" id="Real Estatepointed Logo">
    <g id="Real Estate Logo">
      <path id="Vector" fill-rule="evenodd" clip-rule="evenodd" d="M5.7886 71.9288C5.5635 71.9636 5.3361 71.9891 5.1111 72.0076C4.886 72.0239 4.6494 72.0424 4.4081 72.0587V76.8816H0V57.8219H4.4058C5.5009 57.8404 6.5263 58.0399 7.4822 58.4227C8.4381 58.8054 9.2779 59.3181 9.9994 59.9561C10.721 60.5988 11.2848 61.3457 11.6955 62.1994C12.1038 63.0461 12.3079 63.9601 12.3079 64.9321C12.3079 65.9529 12.0899 66.904 11.656 67.7833C11.2221 68.6601 10.612 69.4164 9.8301 70.0613L14.055 76.8839H8.865L5.7886 71.9288ZM4.4058 67.6278C4.8745 67.6116 5.3222 67.5281 5.7491 67.3796C6.176 67.2311 6.5495 67.0363 6.8697 66.7927C7.1922 66.5491 7.4428 66.266 7.626 65.9459C7.8093 65.6235 7.8998 65.2801 7.8998 64.916C7.8998 64.5517 7.8093 64.213 7.626 63.8998C7.4428 63.5867 7.1922 63.3083 6.8697 63.0647C6.5472 62.8211 6.1737 62.6263 5.7491 62.4778C5.3222 62.3293 4.8768 62.2481 4.4058 62.2296V67.6278Z" fill="#8F9AA3"></path>
      <path id="Vector_2" fill-rule="evenodd" clip-rule="evenodd" d="M30.3511 62.1507H22.4745V65.0458H28.864V69.4512H22.4745V72.4763H30.3511V76.8816H18.0687V57.7708L30.3511 57.7453V62.1507Z" fill="#8F9AA3"></path>
      <path id="Vector_3" fill-rule="evenodd" clip-rule="evenodd" d="M45.9419 76.8816L45.1856 74.5618H39.1626L38.3809 76.8816H33.7129L40.2322 57.743H44.4037L50.5844 76.8816H45.9419ZM40.673 70.1564H43.7749L42.2623 65.5145L40.673 70.1564Z" fill="#8F9AA3"></path>
      <path id="Vector_4" fill-rule="evenodd" clip-rule="evenodd" d="M65.6532 76.8817H54.257V57.7198H58.6651V72.4763H65.6532V76.8817Z" fill="#8F9AA3"></path>
      <path id="Vector_5" fill-rule="evenodd" clip-rule="evenodd" d="M86.2508 62.1507H78.3764V65.0458H84.7638V69.4512H78.3764V72.4763H86.2508V76.8816H73.9683V57.7708L86.2508 57.7453V62.1507Z" fill="#8F9AA3"></path>
      <path id="Vector_6" fill-rule="evenodd" clip-rule="evenodd" d="M96.5747 77.2482C95.9677 77.2482 95.3617 77.1647 94.7627 76.9999C94.1647 76.8352 93.5937 76.5777 93.0547 76.2297C92.1157 75.6219 91.3867 74.8355 90.8657 73.8705C90.3437 72.9054 90.0837 71.8499 90.0837 70.7015H94.4887C94.4887 71.2235 94.6027 71.6272 94.8277 71.9148C95.0527 72.2025 95.2547 72.3974 95.4267 72.5017C95.7397 72.7106 96.0787 72.8243 96.4427 72.8405C96.8067 72.8567 97.1637 72.7894 97.5127 72.6317C97.7557 72.5273 97.9507 72.3974 98.0997 72.2397C98.2477 72.0819 98.3587 71.9311 98.4387 71.7826C98.5167 71.6342 98.5637 71.4927 98.5817 71.3535C98.5977 71.2143 98.6077 71.1006 98.6077 71.0148C98.6077 70.9266 98.5977 70.8152 98.5817 70.6761C98.5657 70.5369 98.5167 70.3884 98.4387 70.233C98.3587 70.0776 98.2477 69.9244 98.0997 69.776C97.9507 69.6275 97.7557 69.4929 97.5127 69.3723C97.3217 69.2841 97.1177 69.2076 96.8997 69.138C96.6817 69.0684 96.4517 68.9896 96.2077 68.9037C95.7747 68.7645 95.3227 68.6091 94.8537 68.4351C94.3847 68.2611 93.9137 68.0268 93.4447 67.7322C92.8367 67.3494 92.3247 66.8715 91.9067 66.2985C91.4897 65.7256 91.1907 65.1085 91.0067 64.4473C90.8237 63.7862 90.7637 63.1042 90.8237 62.4012C90.8837 61.6983 91.0807 61.0232 91.4097 60.3806C91.7237 59.7891 92.1137 59.2764 92.5847 58.8426C93.0537 58.4088 93.5747 58.0655 94.1487 57.8126C94.7217 57.5597 95.3377 57.4089 95.9997 57.3556C96.6607 57.3045 97.3287 57.3648 98.0067 57.5388C98.6677 57.6943 99.2617 57.9425 99.7977 58.2812C100.336 58.6199 100.797 59.0282 101.185 59.5061C101.578 59.984 101.877 60.5175 102.081 61.109C102.29 61.7006 102.394 62.3177 102.394 62.9603H98.0087C98.0087 62.5613 97.8827 62.2829 97.6307 62.1252C97.3777 61.9697 97.1567 61.8653 96.9647 61.8119C96.9297 61.8119 96.8467 61.798 96.7167 61.7726C96.5867 61.747 96.4377 61.747 96.2737 61.7726C96.1087 61.798 95.9387 61.8584 95.7647 61.9558C95.5917 62.0509 95.4517 62.204 95.3477 62.4128C95.2087 62.6912 95.1827 62.9812 95.2687 63.2874C95.3567 63.5913 95.5287 63.8303 95.7907 64.0042C96.0347 64.1434 96.3037 64.2687 96.5987 64.3824C96.8927 64.496 97.2067 64.605 97.5377 64.7071C97.8317 64.793 98.1337 64.8904 98.4387 64.9948C98.7417 65.0992 99.0457 65.2198 99.3587 65.359C100.498 65.8809 101.394 66.6442 102.041 67.6533C102.689 68.6624 103.016 69.7829 103.016 71.0171C103.016 72.2327 102.691 73.3462 102.041 74.3553C101.394 75.3645 100.498 76.1277 99.3587 76.6497C98.9117 76.8584 98.4497 77.0092 97.9807 77.1066C97.5127 77.1994 97.0437 77.2482 96.5747 77.2482Z" fill="#8F9AA3"></path>
      <path id="Vector_7" fill-rule="evenodd" clip-rule="evenodd" d="M118.242 57.6664V62.0741H114.565V76.8816H110.159V62.0741H106.507V57.6664H118.242Z" fill="#8F9AA3"></path>
      <path id="Vector_8" fill-rule="evenodd" clip-rule="evenodd" d="M133.441 76.8816L132.685 74.5618H126.662L125.88 76.8816H121.212L127.732 57.743H131.903L138.083 76.8816H133.441ZM128.175 70.1564H131.277L129.764 65.5145L128.175 70.1564Z" fill="#8F9AA3"></path>
      <path id="Vector_9" fill-rule="evenodd" clip-rule="evenodd" d="M152.737 57.6664V62.0741H149.06V76.8816H144.652V62.0741H141.002V57.6664H152.737Z" fill="#8F9AA3"></path>
      <path id="Vector_10" fill-rule="evenodd" clip-rule="evenodd" d="M168.98 62.1507H161.106V65.0458H167.493V69.4512H161.106V72.4763H168.98V76.8816H156.698V57.7708L168.98 57.7453V62.1507Z" fill="#8F9AA3"></path>
      <path id="Vector_11" fill-rule="evenodd" clip-rule="evenodd" d="M21.7831 88.251C21.7831 88.611 21.7157 88.947 21.5812 89.262C21.4466 89.578 21.2633 89.856 21.0266 90.096C20.79 90.335 20.5163 90.525 20.203 90.664C19.8898 90.803 19.5535 90.874 19.1962 90.882V91.881H17.7531V85.6111H19.1962C19.5558 85.6158 19.8898 85.6901 20.203 85.8338C20.5163 85.9754 20.79 86.1679 21.0266 86.4069C21.2633 86.6459 21.4489 86.9245 21.5812 87.24C21.718 87.556 21.7831 87.892 21.7831 88.251ZM19.1962 89.437C19.3563 89.432 19.5048 89.395 19.644 89.33C19.7832 89.265 19.9037 89.176 20.0081 89.072C20.1102 88.968 20.1915 88.843 20.2518 88.699C20.3121 88.557 20.3423 88.404 20.3423 88.244C20.3423 88.084 20.3121 87.933 20.2518 87.789C20.1915 87.646 20.1102 87.523 20.0081 87.416C19.906 87.311 19.7855 87.224 19.644 87.158C19.5048 87.094 19.3539 87.056 19.1962 87.052V89.437Z" fill="#8F9AA3"></path>
      <path id="Vector_12" fill-rule="evenodd" clip-rule="evenodd" d="M28.0008 90.258C27.9266 90.269 27.8524 90.279 27.7782 90.283C27.7038 90.288 27.6273 90.295 27.5484 90.299V91.88H26.1053V85.6344H27.5484C27.908 85.639 28.2422 85.7063 28.5576 85.8316C28.8708 85.9568 29.1446 86.1241 29.3813 86.3347C29.618 86.5462 29.8035 86.7896 29.9357 87.071C30.0703 87.348 30.1376 87.648 30.1376 87.966C30.1376 88.3 30.0657 88.613 29.9242 88.9C29.7826 89.188 29.5831 89.437 29.3256 89.648L30.7106 91.881H29.0101L28.0008 90.258ZM27.5484 88.847C27.7015 88.843 27.8477 88.815 27.9892 88.766C28.1284 88.717 28.2514 88.654 28.3558 88.574C28.4602 88.495 28.5437 88.402 28.6041 88.295C28.6643 88.191 28.6945 88.078 28.6945 87.959C28.6945 87.839 28.6643 87.729 28.6041 87.624C28.5437 87.523 28.4625 87.433 28.3558 87.351C28.2514 87.272 28.1284 87.207 27.9892 87.158C27.8501 87.109 27.7038 87.082 27.5484 87.078V88.847Z" fill="#8F9AA3"></path>
      <path id="Vector_13" fill-rule="evenodd" clip-rule="evenodd" d="M37.5108 85.6019C37.9446 85.6019 38.3483 85.6854 38.7311 85.8501C39.1116 86.0148 39.4434 86.2401 39.7288 86.5204C40.0142 86.8033 40.2369 87.135 40.4016 87.516C40.5663 87.896 40.6498 88.305 40.6498 88.739C40.6498 89.172 40.5663 89.578 40.4016 89.961C40.2369 90.341 40.0119 90.673 39.7288 90.956C39.4434 91.236 39.1116 91.462 38.7311 91.627C38.3507 91.791 37.9446 91.874 37.5108 91.874C37.077 91.874 36.6732 91.791 36.2904 91.627C35.91 91.462 35.5782 91.236 35.2974 90.956C35.0167 90.673 34.794 90.341 34.6292 89.961C34.4646 89.58 34.381 89.172 34.381 88.739C34.381 88.305 34.4646 87.899 34.6292 87.516C34.794 87.133 35.0167 86.8033 35.2974 86.5204C35.5805 86.2401 35.91 86.0148 36.2904 85.8501C36.6732 85.6854 37.0793 85.6019 37.5108 85.6019ZM37.5154 90.429C37.7498 90.429 37.9678 90.385 38.172 90.298C38.3762 90.209 38.5572 90.089 38.7103 89.933C38.8634 89.78 38.984 89.599 39.0722 89.395C39.1603 89.191 39.2045 88.97 39.2045 88.736C39.2045 88.501 39.1603 88.284 39.0722 88.078C38.984 87.873 38.8634 87.692 38.7103 87.539C38.5572 87.386 38.3762 87.265 38.172 87.177C37.9678 87.089 37.7474 87.045 37.5131 87.045C37.2788 87.045 37.0607 87.089 36.8565 87.177C36.6523 87.265 36.4714 87.386 36.3183 87.539C36.1652 87.692 36.0445 87.873 35.954 88.078C35.8659 88.281 35.8218 88.501 35.8218 88.736C35.8218 88.97 35.8659 89.188 35.954 89.395C36.0422 89.599 36.1628 89.78 36.3183 89.933C36.4714 90.086 36.6523 90.206 36.8565 90.298C37.063 90.385 37.2811 90.429 37.5154 90.429Z" fill="#8F9AA3"></path>
      <path id="Vector_14" fill-rule="evenodd" clip-rule="evenodd" d="M48.5845 88.251C48.5845 88.611 48.5173 88.947 48.3827 89.262C48.2481 89.578 48.0648 89.856 47.8281 90.096C47.5915 90.335 47.3178 90.525 47.0045 90.664C46.6913 90.803 46.3549 90.874 45.9953 90.882V91.881H44.5522V85.6111H45.9953C46.3549 85.6158 46.689 85.6901 47.0022 85.8338C47.3154 85.9754 47.5892 86.1679 47.8258 86.4069C48.0625 86.6459 48.2481 86.9245 48.3803 87.24C48.5173 87.556 48.5845 87.892 48.5845 88.251ZM45.9976 89.437C46.1577 89.432 46.3062 89.395 46.4454 89.33C46.5846 89.265 46.7052 89.176 46.8073 89.072C46.9094 88.968 46.9906 88.843 47.0509 88.699C47.1113 88.557 47.1414 88.404 47.1414 88.244C47.1414 88.084 47.1113 87.933 47.0509 87.789C46.9906 87.646 46.9094 87.523 46.8073 87.416C46.7052 87.311 46.5846 87.224 46.4454 87.158C46.3062 87.094 46.1554 87.056 45.9976 87.052V89.437Z" fill="#8F9AA3"></path>
      <path id="Vector_15" fill-rule="evenodd" clip-rule="evenodd" d="M56.8346 87.054H54.2547V88.003H56.3474V89.445H54.2547V90.437H56.8346V91.881H52.8116V85.6204L56.8346 85.6111V87.054Z" fill="#8F9AA3"></path>
      <path id="Vector_16" fill-rule="evenodd" clip-rule="evenodd" d="M62.941 90.258C62.8668 90.269 62.7926 90.279 62.7183 90.283C62.6441 90.288 62.5675 90.295 62.4887 90.299V91.88H61.0455V85.6344H62.4887C62.8483 85.639 63.1823 85.7063 63.4956 85.8316C63.8088 85.9568 64.0825 86.1241 64.3192 86.3347C64.5558 86.5462 64.7414 86.7896 64.8737 87.071C65.0082 87.348 65.0755 87.648 65.0755 87.966C65.0755 88.3 65.0036 88.613 64.8621 88.9C64.7206 89.188 64.521 89.437 64.2635 89.648L65.6486 91.881H63.9479L62.941 90.258ZM62.4887 88.847C62.6418 88.843 62.7879 88.815 62.9295 88.766C63.0686 88.717 63.1916 88.654 63.296 88.574C63.4004 88.495 63.4839 88.402 63.5443 88.295C63.6046 88.191 63.6347 88.078 63.6347 87.959C63.6347 87.839 63.6046 87.729 63.5443 87.624C63.4839 87.523 63.4027 87.433 63.296 87.351C63.1916 87.272 63.0686 87.207 62.9295 87.158C62.7902 87.109 62.6441 87.082 62.4887 87.078V88.847Z" fill="#8F9AA3"></path>
      <path id="Vector_17" fill-rule="evenodd" clip-rule="evenodd" d="M73.3442 85.5856V87.029H72.14V91.881H70.6946V87.029H69.4998V85.5856H73.3442Z" fill="#8F9AA3"></path>
      <path id="Vector_18" fill-rule="evenodd" clip-rule="evenodd" d="M78.3996 91.881L79.1258 90.105L76.9821 85.5602H78.5783L79.8682 88.284L80.9703 85.5602H82.534L79.9634 91.881H78.3996Z" fill="#8F9AA3"></path>
      <path id="Vector_19" fill-rule="evenodd" clip-rule="evenodd" d="M90.1698 92C89.9698 92 89.7728 91.972 89.5758 91.919C89.3778 91.866 89.1928 91.78 89.0158 91.666C88.7078 91.466 88.4688 91.209 88.2998 90.893C88.1278 90.578 88.0448 90.232 88.0448 89.856H89.4878C89.4878 90.028 89.5248 90.16 89.5988 90.253C89.6728 90.346 89.7378 90.411 89.7958 90.445C89.8978 90.513 90.0088 90.55 90.1298 90.557C90.2508 90.562 90.3658 90.541 90.4798 90.49C90.5588 90.455 90.6238 90.414 90.6728 90.362C90.7218 90.311 90.7588 90.26 90.7838 90.213C90.8088 90.165 90.8258 90.119 90.8308 90.072C90.8348 90.026 90.8398 89.989 90.8398 89.96C90.8398 89.933 90.8378 89.896 90.8308 89.85C90.8258 89.803 90.8088 89.754 90.7838 89.703C90.7588 89.653 90.7218 89.601 90.6728 89.555C90.6238 89.507 90.5608 89.462 90.4798 89.422C90.4178 89.395 90.3508 89.369 90.2778 89.346C90.2068 89.323 90.1328 89.298 90.0508 89.269C89.9088 89.223 89.7608 89.172 89.6078 89.116C89.4548 89.059 89.2998 88.982 89.1458 88.887C88.9468 88.762 88.7798 88.604 88.6428 88.415C88.5058 88.228 88.4078 88.026 88.3478 87.81C88.2878 87.594 88.2698 87.37 88.2878 87.14C88.3078 86.9099 88.3708 86.6872 88.4808 86.4791C88.5828 86.2865 88.7098 86.1171 88.8648 85.9753C89.0188 85.8338 89.1898 85.7201 89.3778 85.639C89.5658 85.5555 89.7678 85.5067 89.9838 85.4905C90.1998 85.4742 90.4198 85.4928 90.6428 85.5509C90.8588 85.6018 91.0528 85.6831 91.2288 85.7944C91.4058 85.9058 91.5568 86.0406 91.6848 86.1954C91.8118 86.351 91.9118 86.5273 91.9768 86.7199C92.0468 86.9125 92.0788 87.117 92.0788 87.325H90.6428C90.6428 87.195 90.6008 87.102 90.5198 87.052C90.4358 87.001 90.3648 86.9658 90.3018 86.9494C90.2898 86.9494 90.2618 86.9451 90.2208 86.9357C90.1778 86.9262 90.1298 86.9262 90.0738 86.9357C90.0208 86.9451 89.9648 86.964 89.9078 86.9959C89.8488 87.026 89.8048 87.078 89.7708 87.145C89.7238 87.235 89.7168 87.33 89.7448 87.43C89.7728 87.53 89.8308 87.609 89.9158 87.664C89.9958 87.71 90.0838 87.75 90.1808 87.787C90.2778 87.824 90.3808 87.859 90.4898 87.893C90.5868 87.922 90.6838 87.955 90.7838 87.986C90.8838 88.022 90.9838 88.061 91.0858 88.108C91.4598 88.279 91.7518 88.53 91.9658 88.859C92.1758 89.188 92.2828 89.557 92.2828 89.96C92.2828 90.359 92.1758 90.724 91.9658 91.053C91.7538 91.383 91.4598 91.634 91.0858 91.805C90.9398 91.873 90.7888 91.923 90.6338 91.954C90.4758 91.984 90.3218 92 90.1698 92Z" fill="#8F9AA3"></path>
      <path id="Vector_20" fill-rule="evenodd" clip-rule="evenodd" d="M99.0638 85.6019C99.4978 85.6019 99.9018 85.6854 100.285 85.8501C100.665 86.0148 100.997 86.2401 101.283 86.5204C101.568 86.8033 101.791 87.135 101.955 87.516C102.12 87.896 102.204 88.305 102.204 88.739C102.204 89.172 102.12 89.578 101.955 89.961C101.791 90.341 101.566 90.673 101.283 90.956C100.997 91.236 100.665 91.462 100.285 91.627C99.9038 91.791 99.4978 91.874 99.0638 91.874C98.6308 91.874 98.2268 91.791 97.8448 91.627C97.4628 91.462 97.1318 91.236 96.8508 90.956C96.5698 90.673 96.3478 90.341 96.1828 89.961C96.0188 89.58 95.9348 89.172 95.9348 88.739C95.9348 88.305 96.0188 87.899 96.1828 87.516C96.3478 87.133 96.5698 86.8033 96.8508 86.5204C97.1338 86.2401 97.4628 86.0148 97.8448 85.8501C98.2248 85.6854 98.6308 85.6019 99.0638 85.6019ZM99.0698 90.429C99.3028 90.429 99.5208 90.385 99.7278 90.298C99.9328 90.209 100.114 90.089 100.266 89.933C100.42 89.78 100.54 89.599 100.628 89.395C100.716 89.191 100.76 88.97 100.76 88.736C100.76 88.501 100.716 88.284 100.628 88.078C100.54 87.873 100.42 87.692 100.266 87.539C100.114 87.386 99.9328 87.265 99.7278 87.177C99.5238 87.089 99.3028 87.045 99.0698 87.045C98.8348 87.045 98.6168 87.089 98.4098 87.177C98.2058 87.265 98.0258 87.386 97.8718 87.539C97.7188 87.692 97.5978 87.873 97.5098 88.078C97.4218 88.281 97.3778 88.501 97.3778 88.736C97.3778 88.97 97.4218 89.188 97.5098 89.395C97.5978 89.599 97.7188 89.78 97.8718 89.933C98.0258 90.086 98.2058 90.206 98.4098 90.298C98.6168 90.385 98.8348 90.429 99.0698 90.429Z" fill="#8F9AA3"></path>
      <path id="Vector_21" fill-rule="evenodd" clip-rule="evenodd" d="M109.839 91.881H106.106V85.6019H107.549V90.437H109.839V91.881Z" fill="#8F9AA3"></path>
      <path id="Vector_22" fill-rule="evenodd" clip-rule="evenodd" d="M116.277 91.881C115.959 91.881 115.656 91.824 115.373 91.708C115.087 91.592 114.834 91.425 114.611 91.209C114.384 90.982 114.208 90.724 114.087 90.441C113.964 90.156 113.901 89.852 113.894 89.527V85.6065H115.337V89.518C115.337 89.768 115.431 89.989 115.618 90.176C115.806 90.353 116.029 90.441 116.284 90.441C116.409 90.441 116.53 90.415 116.644 90.365C116.757 90.314 116.857 90.244 116.943 90.16C117.029 90.075 117.094 89.975 117.14 89.861C117.187 89.747 117.207 89.624 117.207 89.495V85.6019H118.651V89.481C118.655 89.806 118.597 90.112 118.476 90.404C118.354 90.694 118.187 90.947 117.973 91.165C117.76 91.381 117.509 91.555 117.221 91.682C116.934 91.81 116.627 91.877 116.303 91.884H116.277V91.881Z" fill="#8F9AA3"></path>
      <path id="Vector_23" fill-rule="evenodd" clip-rule="evenodd" d="M126.578 85.5856V87.029H125.374V91.881H123.931V87.029H122.734V85.5856H126.578Z" fill="#8F9AA3"></path>
      <path id="Vector_24" fill-rule="evenodd" clip-rule="evenodd" d="M132.104 91.881H130.659V85.6019H132.104V91.881Z" fill="#8F9AA3"></path>
      <path id="Vector_25" fill-rule="evenodd" clip-rule="evenodd" d="M139.127 85.6021C139.561 85.6021 139.965 85.6856 140.348 85.8503C140.728 86.015 141.06 86.2403 141.346 86.5206C141.631 86.8035 141.853 87.1352 142.018 87.5162C142.183 87.8962 142.266 88.3052 142.266 88.7392C142.266 89.1722 142.183 89.5782 142.018 89.9612C141.853 90.3412 141.628 90.6732 141.346 90.9562C141.06 91.2362 140.728 91.4622 140.348 91.6272C139.967 91.7912 139.561 91.8742 139.127 91.8742C138.694 91.8742 138.29 91.7912 137.907 91.6272C137.526 91.4622 137.195 91.2362 136.914 90.9562C136.631 90.6732 136.411 90.3412 136.246 89.9612C136.081 89.5802 135.998 89.1722 135.998 88.7392C135.998 88.3052 136.081 87.8992 136.246 87.5162C136.411 87.1332 136.633 86.8035 136.914 86.5206C137.197 86.2403 137.529 86.015 137.907 85.8503C138.29 85.6856 138.696 85.6021 139.127 85.6021ZM139.133 90.4292C139.366 90.4292 139.584 90.3851 139.789 90.2981C139.993 90.2091 140.174 90.0892 140.327 89.9332C140.48 89.7802 140.601 89.5991 140.689 89.3951C140.777 89.1911 140.821 88.9702 140.821 88.7362C140.821 88.5012 140.777 88.2842 140.689 88.0782C140.601 87.8732 140.48 87.6922 140.327 87.5392C140.174 87.3862 139.993 87.2652 139.789 87.1772C139.584 87.0892 139.364 87.0452 139.133 87.0452C138.898 87.0452 138.68 87.0892 138.473 87.1772C138.269 87.2652 138.088 87.3862 137.935 87.5392C137.782 87.6922 137.662 87.8732 137.571 88.0782C137.482 88.2812 137.438 88.5012 137.438 88.7362C137.438 88.9702 137.482 89.1881 137.571 89.3951C137.659 89.5991 137.78 89.7802 137.935 89.9332C138.088 90.0862 138.269 90.2061 138.473 90.2981C138.68 90.3851 138.898 90.4292 139.133 90.4292Z" fill="#8F9AA3"></path>
      <path id="Vector_26" fill-rule="evenodd" clip-rule="evenodd" d="M149.783 85.6111H151.227V91.881H149.663L147.612 88.225V91.881H146.169V85.6274H147.742L149.783 89.274V85.6111Z" fill="#8F9AA3"></path>
      <path id="Vector_27" fill-rule="evenodd" clip-rule="evenodd" d="M28.3581 43.7405H26.0356V44.5919H27.9195V45.8933H26.0356V46.7841H28.3581V48.0832H24.7365V42.4484L28.3581 42.4391V43.7405Z" fill="#8F9AA3"></path>
      <path id="Vector_28" fill-rule="evenodd" clip-rule="evenodd" d="M34.7384 48.1923C34.5598 48.1923 34.3811 48.1691 34.2048 48.1203C34.0284 48.0716 33.8591 47.995 33.7013 47.893C33.4253 47.7144 33.2095 47.4824 33.0564 47.197C32.9032 46.9117 32.8267 46.6008 32.8267 46.2622H34.1259C34.1259 46.4153 34.1584 46.5359 34.2257 46.6194C34.2929 46.7029 34.351 46.7609 34.402 46.7934C34.4948 46.856 34.5946 46.8885 34.7012 46.8932C34.808 46.8978 34.9147 46.8769 35.0168 46.8305C35.0887 46.8003 35.1467 46.7609 35.1909 46.7145C35.2349 46.6681 35.2674 46.6241 35.2906 46.5799C35.3138 46.5359 35.3277 46.4941 35.3323 46.4524C35.337 46.4106 35.3393 46.3781 35.3393 46.3526C35.3393 46.3271 35.337 46.2947 35.3323 46.2529C35.3277 46.2111 35.3138 46.1694 35.2906 46.123C35.2674 46.0765 35.2349 46.0325 35.1909 45.9884C35.1467 45.9444 35.0887 45.9049 35.0168 45.8701C34.9611 45.8445 34.9008 45.8213 34.8358 45.8005C34.7709 45.7796 34.7036 45.7564 34.6317 45.7309C34.5041 45.6892 34.3695 45.6428 34.2327 45.5917C34.0934 45.5407 33.9565 45.471 33.8174 45.3852C33.6387 45.2716 33.4855 45.1324 33.3626 44.9631C33.2397 44.7937 33.1515 44.6128 33.0981 44.4179C33.0447 44.223 33.0262 44.0211 33.0447 43.8147C33.0634 43.6083 33.1213 43.4088 33.2188 43.2185C33.3116 43.0446 33.4276 42.8938 33.5644 42.7638C33.7037 42.6362 33.8568 42.5342 34.0262 42.4599C34.1955 42.3857 34.3765 42.3416 34.5713 42.3254C34.7663 42.3092 34.9634 42.3277 35.163 42.3787C35.3579 42.4252 35.5342 42.497 35.6919 42.5968C35.852 42.6966 35.9866 42.8172 36.1003 42.9587C36.2163 43.1002 36.3045 43.258 36.3648 43.4319C36.4274 43.6059 36.4576 43.7892 36.4576 43.9771H35.1653C35.1653 43.8588 35.1282 43.7776 35.0539 43.7312C34.9797 43.6848 34.9147 43.6547 34.859 43.6384C34.8498 43.6384 34.8243 43.6338 34.7871 43.6268C34.7477 43.6199 34.7059 43.6199 34.6572 43.6268C34.6085 43.6338 34.5574 43.6524 34.5064 43.6801C34.4554 43.708 34.4136 43.7521 34.3835 43.8147C34.3416 43.896 34.3348 43.9818 34.3603 44.0722C34.3858 44.1627 34.4368 44.2323 34.5134 44.2833C34.5853 44.3251 34.6642 44.3622 34.7523 44.3946C34.8405 44.4271 34.931 44.4596 35.0284 44.4898C35.1165 44.5153 35.2047 44.5431 35.2929 44.5733C35.3834 44.6035 35.4716 44.6406 35.5643 44.68C35.9007 44.8332 36.1653 45.0605 36.3555 45.3574C36.5457 45.6544 36.6432 45.9861 36.6432 46.3503C36.6432 46.7099 36.548 47.0369 36.3555 47.3339C36.1653 47.6308 35.9007 47.8559 35.5643 48.0113C35.4321 48.0716 35.2975 48.118 35.1584 48.1458C35.0145 48.1783 34.8753 48.1923 34.7384 48.1923Z" fill="#8F9AA3"></path>
      <path id="Vector_29" fill-rule="evenodd" clip-rule="evenodd" d="M44.4616 42.4159V43.7173H43.3782V48.0833H42.0789V43.7173H41.0024V42.4159H44.4616Z" fill="#8F9AA3"></path>
      <path id="Vector_30" fill-rule="evenodd" clip-rule="evenodd" d="M50.1738 42.4159C50.5472 42.4368 50.8999 42.5273 51.2317 42.685C51.5634 42.845 51.8488 43.0516 52.0925 43.3067C52.336 43.5619 52.5286 43.8612 52.6701 44.1975C52.8117 44.5362 52.8812 44.8981 52.8812 45.2809C52.8812 45.6614 52.8116 46.0163 52.6747 46.3457C52.5356 46.6774 52.3453 46.9674 52.1017 47.218C51.8581 47.4685 51.5728 47.6703 51.2432 47.8211C50.9161 47.9719 50.5589 48.0577 50.1738 48.0786H48.8745V42.4043H50.1738V42.4159ZM50.1738 46.7772C50.3733 46.7563 50.5589 46.7053 50.7305 46.6194C50.9023 46.536 51.0507 46.4268 51.176 46.297C51.3013 46.1671 51.401 46.014 51.473 45.8399C51.5449 45.666 51.5796 45.4804 51.5796 45.2855C51.5796 45.0861 51.5449 44.8958 51.473 44.7126C51.401 44.5316 51.3013 44.3692 51.1737 44.2277C51.0461 44.0862 50.8976 43.9702 50.7282 43.8821C50.5589 43.7915 50.3756 43.7382 50.1738 43.7173V46.7772Z" fill="#8F9AA3"></path>
      <path id="Vector_31" fill-rule="evenodd" clip-rule="evenodd" d="M115.897 46.7841V48.0833H112.122V46.682C112.496 46.457 112.836 46.2273 113.141 45.9954C113.447 45.7657 113.706 45.5407 113.92 45.3296C114.136 45.1161 114.303 44.9236 114.419 44.7473C114.537 44.5733 114.595 44.4318 114.595 44.3251C114.595 44.1604 114.539 44.0212 114.426 43.9075C114.312 43.7938 114.175 43.7382 114.011 43.7382C113.846 43.7382 113.709 43.7961 113.595 43.9098C113.481 44.0235 113.426 44.1627 113.426 44.3297H112.12C112.12 44.0676 112.171 43.824 112.271 43.5943C112.37 43.367 112.507 43.1675 112.679 42.9935C112.85 42.8218 113.05 42.685 113.279 42.5852C113.507 42.4854 113.753 42.4344 114.015 42.4344C114.277 42.4344 114.521 42.4854 114.749 42.5852C114.975 42.685 115.173 42.8218 115.344 42.9935C115.514 43.1652 115.649 43.3647 115.75 43.5943C115.85 43.8217 115.899 44.0676 115.899 44.3297C115.899 45.0721 115.344 45.891 114.238 46.7818L115.897 46.7841Z" fill="#8F9AA3"></path>
      <path id="Vector_32" fill-rule="evenodd" clip-rule="evenodd" d="M123.14 42.4321C123.529 42.4321 123.894 42.5063 124.237 42.6548C124.58 42.8033 124.88 43.0051 125.136 43.258C125.393 43.5109 125.593 43.8101 125.741 44.1534C125.889 44.4968 125.963 44.8633 125.963 45.253C125.963 45.6428 125.889 46.0093 125.741 46.3526C125.593 46.6959 125.391 46.9952 125.136 47.2481C124.88 47.501 124.579 47.7028 124.237 47.8513C123.894 47.9997 123.529 48.074 123.14 48.074C122.75 48.074 122.386 47.9997 122.042 47.8513C121.702 47.7028 121.403 47.501 121.147 47.2481C120.894 46.9952 120.692 46.6959 120.544 46.3526C120.396 46.0093 120.321 45.6428 120.321 45.253C120.321 44.8633 120.396 44.4968 120.544 44.1534C120.692 43.8101 120.892 43.5109 121.147 43.258C121.4 43.0051 121.699 42.8033 122.042 42.6548C122.386 42.5063 122.75 42.4321 123.14 42.4321ZM123.145 46.7772C123.355 46.7772 123.553 46.7377 123.736 46.6589C123.922 46.58 124.082 46.4709 124.221 46.3317C124.361 46.1925 124.469 46.0325 124.549 45.8469C124.627 45.6613 124.667 45.4641 124.667 45.2553C124.667 45.0442 124.627 44.8471 124.549 44.6638C124.469 44.4782 124.361 44.3181 124.221 44.1789C124.082 44.0397 123.922 43.9307 123.736 43.8519C123.551 43.773 123.354 43.7335 123.145 43.7335C122.934 43.7335 122.736 43.773 122.553 43.8519C122.367 43.9307 122.207 44.0397 122.068 44.1789C121.928 44.3181 121.82 44.4782 121.741 44.6638C121.662 44.8494 121.622 45.0466 121.622 45.2553C121.622 45.4664 121.662 45.6637 121.741 45.8469C121.82 46.0325 121.928 46.1925 122.068 46.3317C122.207 46.4709 122.367 46.58 122.553 46.6589C122.736 46.7377 122.934 46.7772 123.145 46.7772Z" fill="#8F9AA3"></path>
      <path id="Vector_33" fill-rule="evenodd" clip-rule="evenodd" d="M134.169 46.7841V48.0833H130.395V46.682C130.768 46.457 131.109 46.2273 131.413 45.9954C131.72 45.7657 131.979 45.5407 132.193 45.3296C132.409 45.1161 132.576 44.9236 132.691 44.7473C132.81 44.5733 132.868 44.4318 132.868 44.3251C132.868 44.1604 132.812 44.0212 132.698 43.9075C132.585 43.7938 132.448 43.7382 132.284 43.7382C132.119 43.7382 131.982 43.7961 131.868 43.9098C131.754 44.0235 131.699 44.1627 131.699 44.3297H130.392C130.392 44.0676 130.444 43.824 130.543 43.5943C130.643 43.367 130.78 43.1675 130.952 42.9935C131.123 42.8218 131.323 42.685 131.553 42.5852C131.78 42.4854 132.026 42.4344 132.288 42.4344C132.55 42.4344 132.794 42.4854 133.021 42.5852C133.248 42.685 133.446 42.8218 133.617 42.9935C133.786 43.1652 133.922 43.3647 134.023 43.5943C134.123 43.8217 134.172 44.0676 134.172 44.3297C134.172 45.0721 133.617 45.891 132.51 46.7818L134.169 46.7841Z" fill="#8F9AA3"></path>
      <path id="Vector_34" fill-rule="evenodd" clip-rule="evenodd" d="M141.413 42.4321C141.803 42.4321 142.167 42.5063 142.51 42.6548C142.853 42.8033 143.153 43.0051 143.408 43.258C143.666 43.5109 143.865 43.8101 144.014 44.1534C144.162 44.4968 144.236 44.8633 144.236 45.253C144.236 45.6428 144.162 46.0093 144.014 46.3526C143.865 46.6959 143.663 46.9952 143.408 47.2481C143.153 47.501 142.851 47.7028 142.51 47.8513C142.167 47.9997 141.803 48.074 141.413 48.074C141.023 48.074 140.658 47.9997 140.315 47.8513C139.974 47.7028 139.675 47.501 139.42 47.2481C139.167 46.9952 138.965 46.6959 138.817 46.3526C138.668 46.0093 138.594 45.6428 138.594 45.253C138.594 44.8633 138.668 44.4968 138.817 44.1534C138.965 43.8101 139.164 43.5109 139.42 43.258C139.673 43.0051 139.972 42.8033 140.315 42.6548C140.658 42.5063 141.023 42.4321 141.413 42.4321ZM141.417 46.7772C141.628 46.7772 141.826 46.7377 142.009 46.6589C142.195 46.58 142.354 46.4709 142.494 46.3317C142.633 46.1925 142.742 46.0325 142.821 45.8469C142.9 45.6613 142.94 45.4641 142.94 45.2553C142.94 45.0442 142.9 44.8471 142.821 44.6638C142.742 44.4782 142.633 44.3181 142.494 44.1789C142.354 44.0397 142.195 43.9307 142.009 43.8519C141.826 43.773 141.626 43.7335 141.417 43.7335C141.206 43.7335 141.009 43.773 140.826 43.8519C140.642 43.9307 140.48 44.0397 140.341 44.1789C140.202 44.3181 140.093 44.4782 140.014 44.6638C139.935 44.8494 139.895 45.0466 139.895 45.2553C139.895 45.4664 139.935 45.6637 140.014 45.8469C140.093 46.0325 140.202 46.1925 140.341 46.3317C140.48 46.4709 140.64 46.58 140.826 46.6589C141.009 46.7377 141.206 46.7772 141.417 46.7772Z" fill="#8F9AA3"></path>
      <path id="Vector_35" fill-rule="evenodd" clip-rule="evenodd" d="M65.5836 44.4828H67.4373V37.4004H65.5836V44.4828Z" fill="#8F9AA3"></path>
      <path id="Vector_36" fill-rule="evenodd" clip-rule="evenodd" d="M68.8502 44.4829H70.7063V29.9468H68.8502V44.4829Z" fill="#8F9AA3"></path>
      <path id="Vector_37" fill-rule="evenodd" clip-rule="evenodd" d="M72.1191 44.4827H73.9752V22.5811H72.1191V44.4827Z" fill="#8F9AA3"></path>
      <path id="Vector_38" fill-rule="evenodd" clip-rule="evenodd" d="M75.3882 44.4828H77.242V14.9861H75.3882V44.4828Z" fill="#8F9AA3"></path>
      <path id="Vector_39" fill-rule="evenodd" clip-rule="evenodd" d="M78.6572 44.4829H80.5109V7.52332H78.6572V44.4829Z" fill="#8F9AA3"></path>
      <path id="Vector_40" fill-rule="evenodd" clip-rule="evenodd" d="M81.9261 44.4829H83.7798V0H81.9261V44.4829Z" fill="#8F9AA3"></path>
      <path id="Vector_41" fill-rule="evenodd" clip-rule="evenodd" d="M103.394 44.4828H101.541V37.4004H103.394V44.4828Z" fill="#8F9AA3"></path>
      <path id="Vector_42" fill-rule="evenodd" clip-rule="evenodd" d="M100.125 44.4829H98.2708V29.9468H100.125V44.4829Z" fill="#8F9AA3"></path>
      <path id="Vector_43" fill-rule="evenodd" clip-rule="evenodd" d="M96.8559 44.4827H95.002V22.5811H96.8559V44.4827Z" fill="#8F9AA3"></path>
      <path id="Vector_44" fill-rule="evenodd" clip-rule="evenodd" d="M93.5868 44.4828H91.7328V14.9861H93.5868V44.4828Z" fill="#8F9AA3"></path>
      <path id="Vector_45" fill-rule="evenodd" clip-rule="evenodd" d="M90.3177 44.4829H88.4637V7.52332H90.3177V44.4829Z" fill="#8F9AA3"></path>
      <path id="Vector_46" fill-rule="evenodd" clip-rule="evenodd" d="M87.0488 44.4829H85.1948V0H87.0488V44.4829Z" fill="#8F9AA3"></path>
      <path id="Vector_47" fill-rule="evenodd" clip-rule="evenodd" d="M106.835 48.1923V46.3387H62.1429V48.1923H106.835Z" fill="#8F9AA3"></path>
    </g>
  </symbol>
  <symbol fill="none" xmlns="http://www.w3.org/2000/svg" viewBox="0 0 40 40" id="Cpu">
    <g id="Cpu">
      <path id="Vector" opacity="0.2" d="M31.2501 7.5H8.75006C8.58591 7.5 8.42336 7.53233 8.27171 7.59515C8.12005 7.65797 7.98225 7.75004 7.86617 7.86611C7.7501 7.98219 7.65803 8.11999 7.59521 8.27164C7.53239 8.4233 7.50006 8.58585 7.50006 8.75V31.25C7.50006 31.4142 7.53239 31.5767 7.59521 31.7284C7.65803 31.88 7.7501 32.0178 7.86617 32.1339C7.98225 32.25 8.12005 32.342 8.27171 32.4049C8.42336 32.4677 8.58591 32.5 8.75006 32.5H31.2501C31.4142 32.5 31.5768 32.4677 31.7284 32.4049C31.8801 32.342 32.0179 32.25 32.1339 32.1339C32.25 32.0178 32.3421 31.88 32.4049 31.7284C32.4677 31.5767 32.5001 31.4142 32.5001 31.25V8.75C32.5001 8.58585 32.4677 8.4233 32.4049 8.27164C32.3421 8.11999 32.25 7.98219 32.1339 7.86611C32.0179 7.75004 31.8801 7.65797 31.7284 7.59515C31.5768 7.53233 31.4142 7.5 31.2501 7.5ZM24.3751 24.375H15.6251V15.625H24.3751V24.375Z" fill="#7534FF"></path>
      <path id="Vector_2" d="M24.3751 15.625H15.6251V24.375H24.3751V15.625Z" stroke="#7534FF" stroke-width="2.5" stroke-linecap="round" stroke-linejoin="round"></path>
      <path id="Vector_3" d="M31.2501 7.5H8.75006C8.05971 7.5 7.50006 8.05964 7.50006 8.75V31.25C7.50006 31.9404 8.05971 32.5 8.75006 32.5H31.2501C31.9404 32.5 32.5001 31.9404 32.5001 31.25V8.75C32.5001 8.05964 31.9404 7.5 31.2501 7.5Z" stroke="#7534FF" stroke-width="2.5" stroke-linecap="round" stroke-linejoin="round"></path>
      <path id="Vector_4" d="M32.5001 16.25H36.2501" stroke="#7534FF" stroke-width="2.5" stroke-linecap="round" stroke-linejoin="round"></path>
      <path id="Vector_5" d="M32.5001 23.75H36.2501" stroke="#7534FF" stroke-width="2.5" stroke-linecap="round" stroke-linejoin="round"></path>
      <path id="Vector_6" d="M3.75006 16.25H7.50006" stroke="#7534FF" stroke-width="2.5" stroke-linecap="round" stroke-linejoin="round"></path>
      <path id="Vector_7" d="M3.75006 23.75H7.50006" stroke="#7534FF" stroke-width="2.5" stroke-linecap="round" stroke-linejoin="round"></path>
      <path id="Vector_8" d="M23.7501 32.5V36.25" stroke="#7534FF" stroke-width="2.5" stroke-linecap="round" stroke-linejoin="round"></path>
      <path id="Vector_9" d="M16.2501 32.5V36.25" stroke="#7534FF" stroke-width="2.5" stroke-linecap="round" stroke-linejoin="round"></path>
      <path id="Vector_10" d="M23.7501 3.75V7.5" stroke="#7534FF" stroke-width="2.5" stroke-linecap="round" stroke-linejoin="round"></path>
      <path id="Vector_11" d="M16.2501 3.75V7.5" stroke="#7534FF" stroke-width="2.5" stroke-linecap="round" stroke-linejoin="round"></path>
    </g>
  </symbol>
  <symbol fill="none" xmlns="http://www.w3.org/2000/svg" viewBox="0 0 169 81" id="Tech Logo">
    <g id="Tech Logo">
      <path id="Vector" fill-rule="evenodd" clip-rule="evenodd" d="M12.2172 49.736V54.3043H8.38826V69.6581H3.80046V54.3043H6.10352e-05V49.736H12.2172Z" fill="#8F9AA3"></path>
      <path id="Vector_2" fill-rule="evenodd" clip-rule="evenodd" d="M29.1274 54.3851H20.9278V57.3856H27.5791V61.9539H20.9278V65.0898H29.1274V69.6581H16.34V49.843L29.1274 49.8168V54.3851Z" fill="#8F9AA3"></path>
      <path id="Vector_3" fill-rule="evenodd" clip-rule="evenodd" d="M42.5637 69.6319C41.2786 69.6319 40.0264 69.3939 38.8027 68.9157C37.5813 68.4374 36.4826 67.7124 35.5045 66.7385C34.5637 65.7842 33.8445 64.7054 33.3466 63.5087C32.8488 62.3099 32.601 61.0433 32.601 59.7113C32.601 58.3596 32.8488 57.0843 33.3466 55.8854C33.8445 54.6865 34.5637 53.6187 35.5045 52.6819C36.4826 51.7079 37.5856 50.9786 38.8159 50.4916C40.0462 50.0046 41.3005 49.7622 42.5768 49.7622C43.8532 49.7622 45.101 50.0046 46.3225 50.4916C47.544 50.9786 48.6426 51.7079 49.6207 52.6819L46.3904 55.8985C45.8664 55.3765 45.2677 54.9835 44.5988 54.7237C43.9299 54.4616 43.2501 54.3306 42.5637 54.3306C41.8773 54.3306 41.2018 54.4616 40.5418 54.7237C39.8817 54.9857 39.2874 55.3765 38.7632 55.8985C38.2567 56.4204 37.8686 57.0079 37.5967 57.6564C37.3247 58.3049 37.1887 58.9907 37.1887 59.7113C37.1887 60.4319 37.3247 61.1133 37.5967 61.7531C37.8686 62.3929 38.2567 62.9738 38.7632 63.4957C39.2874 64.0176 39.8817 64.4107 40.5418 64.6727C41.2018 64.9348 41.8773 65.0657 42.5637 65.0657C43.2523 65.0657 43.9299 64.9348 44.5988 64.6727C45.2677 64.4107 45.8664 64.0198 46.3904 63.4957L49.6207 66.7407C48.6426 67.7146 47.5484 68.4396 46.3357 68.9179C45.1251 69.3917 43.8663 69.6319 42.5637 69.6319Z" fill="#8F9AA3"></path>
      <path id="Vector_4" fill-rule="evenodd" clip-rule="evenodd" d="M63.3289 49.8168H67.9167V69.6581H63.3289V62.1701H57.5746V69.6581H52.9847V49.8168H57.5746V57.6018H63.3289V49.8168Z" fill="#8F9AA3"></path>
      <path id="Vector_5" fill-rule="evenodd" clip-rule="evenodd" d="M87.1891 49.8168H91.7781V69.6581H87.1891V62.1701H81.4343V69.6581H76.8467V49.8168H81.4343V57.6018H87.1891V49.8168Z" fill="#8F9AA3"></path>
      <path id="Vector_6" fill-rule="evenodd" clip-rule="evenodd" d="M105.144 49.7884C106.52 49.7884 107.809 50.0505 109.022 50.5724C110.231 51.0943 111.29 51.8018 112.193 52.695C113.098 53.5881 113.809 54.6363 114.333 55.8439C114.857 57.0514 115.12 58.3399 115.12 59.7091C115.12 61.0782 114.857 62.3667 114.333 63.5743C113.809 64.7819 113.098 65.8322 112.193 66.7232C111.287 67.6142 110.231 68.3217 109.022 68.8458C107.809 69.3677 106.52 69.6297 105.144 69.6297C103.769 69.6297 102.48 69.3677 101.268 68.8458C100.059 68.3239 99.004 67.6164 98.109 66.7232C97.215 65.83 96.508 64.7819 95.983 63.5743C95.458 62.3667 95.196 61.0782 95.196 59.7091C95.196 58.3399 95.458 57.0514 95.983 55.8439C96.507 54.6363 97.212 53.5859 98.109 52.695C99.007 51.8018 100.059 51.0965 101.268 50.5724C102.48 50.0505 103.769 49.7884 105.144 49.7884ZM105.16 65.0636C105.901 65.0636 106.599 64.9238 107.25 64.6443C107.901 64.3648 108.472 63.9827 108.961 63.4957C109.449 63.0087 109.833 62.4409 110.114 61.7924C110.394 61.1438 110.535 60.4493 110.535 59.7113C110.535 58.9731 110.394 58.2788 110.114 57.6302C109.833 56.9816 109.449 56.4138 108.961 55.9269C108.472 55.4399 107.901 55.0577 107.25 54.7782C106.599 54.4987 105.901 54.359 105.16 54.359C104.419 54.359 103.722 54.4987 103.071 54.7782C102.419 55.0577 101.848 55.4399 101.359 55.9269C100.871 56.4138 100.487 56.9816 100.206 57.6302C99.926 58.2788 99.785 58.9731 99.785 59.7113C99.785 60.4493 99.926 61.1438 100.206 61.7924C100.487 62.4409 100.871 63.0087 101.359 63.4957C101.848 63.9827 102.419 64.3648 103.071 64.6443C103.719 64.9238 104.417 65.0636 105.16 65.0636Z" fill="#8F9AA3"></path>
      <path id="Vector_7" fill-rule="evenodd" clip-rule="evenodd" d="M126.549 69.6581C125.535 69.6581 124.575 69.4725 123.672 69.1034C122.765 68.7345 121.96 68.206 121.255 67.5225C120.531 66.8018 119.974 65.9916 119.586 65.0898C119.198 64.1879 118.994 63.2249 118.973 62.1963V49.7884H123.561V62.1701C123.561 62.9628 123.86 63.6573 124.456 64.2512C125.052 64.8103 125.759 65.0898 126.575 65.0898C126.974 65.0898 127.353 65.009 127.715 64.8474C128.076 64.6858 128.392 64.4696 128.664 64.1988C128.937 63.928 129.145 63.6136 129.289 63.2533C129.434 62.8929 129.507 62.5043 129.507 62.0915V49.7906H134.094V62.0631C134.112 63.0895 133.928 64.0635 133.537 64.9828C133.149 65.9021 132.614 66.7035 131.936 67.3892C131.259 68.0749 130.46 68.6186 129.548 69.0248C128.634 69.431 127.662 69.6429 126.629 69.6603H126.549V69.6581Z" fill="#8F9AA3"></path>
      <path id="Vector_8" fill-rule="evenodd" clip-rule="evenodd" d="M145.223 70.0359C144.59 70.0359 143.961 69.9507 143.338 69.7782C142.713 69.6079 142.12 69.3415 141.559 68.9811C140.582 68.3501 139.822 67.5356 139.279 66.5354C138.734 65.5353 138.465 64.4412 138.465 63.2511H143.053C143.053 63.7926 143.171 64.2097 143.406 64.5089C143.641 64.8059 143.849 65.009 144.031 65.1181C144.357 65.3344 144.708 65.4523 145.09 65.4697C145.47 65.4872 145.842 65.4152 146.204 65.2536C146.458 65.1444 146.66 65.0112 146.816 64.8474C146.97 64.6858 147.088 64.5286 147.169 64.3735C147.25 64.2207 147.301 64.0721 147.318 63.928C147.336 63.7839 147.344 63.666 147.344 63.5765C147.344 63.4869 147.336 63.369 147.318 63.2249C147.301 63.0807 147.25 62.9279 147.169 62.7663C147.088 62.6047 146.97 62.4475 146.816 62.2924C146.662 62.1396 146.458 61.9998 146.204 61.8732C146.005 61.7836 145.792 61.7028 145.566 61.6308C145.34 61.5587 145.099 61.4779 144.846 61.3884C144.395 61.2442 143.923 61.0826 143.434 60.9014C142.945 60.7202 142.456 60.4778 141.969 60.172C141.336 59.7746 140.802 59.2789 140.368 58.685C139.934 58.0909 139.623 57.4512 139.432 56.7655C139.241 56.0797 139.178 55.3722 139.241 54.6428C139.305 53.9135 139.509 53.2147 139.853 52.5486C140.18 51.935 140.586 51.4044 141.075 50.9545C141.564 50.5047 142.105 50.1488 142.704 49.8867C143.301 49.6247 143.943 49.4674 144.632 49.4128C145.32 49.3582 146.016 49.4216 146.722 49.6028C147.41 49.7644 148.029 50.0221 148.586 50.3737C149.147 50.7252 149.628 51.1489 150.028 51.6446C150.436 52.1403 150.748 52.695 150.961 53.3064C151.177 53.92 151.287 54.5599 151.287 55.2259H146.722C146.722 54.811 146.59 54.5227 146.327 54.3611C146.063 54.1995 145.833 54.0904 145.634 54.0358C145.599 54.0358 145.511 54.0226 145.375 53.9943C145.239 53.9681 145.086 53.9681 144.914 53.9943C144.744 54.0205 144.566 54.0838 144.386 54.1842C144.206 54.2825 144.059 54.4419 143.952 54.6582C143.807 54.9464 143.781 55.2478 143.871 55.5644C143.961 55.8788 144.142 56.1278 144.414 56.3068C144.669 56.451 144.947 56.582 145.257 56.6999C145.564 56.8178 145.89 56.9292 146.235 57.0384C146.541 57.128 146.856 57.2284 147.171 57.3353C147.487 57.4424 147.805 57.5691 148.13 57.7132C149.316 58.2547 150.248 59.0474 150.921 60.0912C151.595 61.1372 151.934 62.299 151.934 63.5787C151.934 64.8408 151.595 65.9938 150.921 67.0398C150.248 68.0859 149.316 68.8785 148.13 69.4179C147.664 69.6341 147.184 69.7913 146.695 69.8917C146.202 69.9879 145.713 70.0359 145.223 70.0359Z" fill="#8F9AA3"></path>
      <path id="Vector_9" fill-rule="evenodd" clip-rule="evenodd" d="M168.84 54.3851H160.642V57.3856H167.294V61.9539H160.642V65.0898H168.84V69.6581H156.055V49.843L168.84 49.8168V54.3851Z" fill="#8F9AA3"></path>
      <path id="Vector_10" fill-rule="evenodd" clip-rule="evenodd" d="M20.4628 80.7928L21.1339 79.1532L19.1492 74.9625H20.6273L21.8225 77.4758L22.8422 74.9625H24.2918L21.9102 80.7928H20.4628Z" fill="#8F9AA3"></path>
      <path id="Vector_11" fill-rule="evenodd" clip-rule="evenodd" d="M31.7348 75.0038C32.1361 75.0038 32.511 75.0804 32.8642 75.2336C33.2172 75.3859 33.5242 75.5913 33.7874 75.8513C34.0506 76.1114 34.2589 76.4169 34.4102 76.7688C34.5637 77.1197 34.6404 77.4951 34.6404 77.8949C34.6404 78.2947 34.5637 78.6701 34.4102 79.0219C34.2567 79.3737 34.0506 79.6792 33.7874 79.9393C33.5242 80.1994 33.215 80.4039 32.8642 80.5571C32.511 80.7103 32.1361 80.786 31.7348 80.786C31.3334 80.786 30.9585 80.7103 30.6054 80.5571C30.2545 80.4039 29.9453 80.1994 29.6844 79.9393C29.4234 79.6792 29.2172 79.3737 29.0637 79.0219C28.9102 78.6701 28.8334 78.2947 28.8334 77.8949C28.8334 77.4951 28.9102 77.1197 29.0637 76.7688C29.2172 76.4169 29.4234 76.1114 29.6844 75.8513C29.9453 75.5913 30.2523 75.3859 30.6054 75.2336C30.9585 75.0778 31.3334 75.0038 31.7348 75.0038ZM31.7392 79.4545C31.9562 79.4545 32.158 79.4124 32.3488 79.3316C32.5396 79.2508 32.7041 79.1397 32.8466 78.9983C32.9892 78.8561 33.101 78.6903 33.1821 78.5026C33.2633 78.3124 33.3049 78.1112 33.3049 77.8949C33.3049 77.6786 33.2633 77.4783 33.1821 77.2881C33.101 77.0979 32.9892 76.9346 32.8466 76.7923C32.7041 76.6501 32.5374 76.539 32.3488 76.4582C32.1602 76.3774 31.9562 76.3361 31.7392 76.3361C31.522 76.3361 31.3203 76.3774 31.1295 76.4582C30.9387 76.539 30.7743 76.6501 30.6317 76.7923C30.4892 76.9346 30.3773 77.1004 30.2961 77.2881C30.215 77.4783 30.1733 77.6786 30.1733 77.8949C30.1733 78.1112 30.215 78.3124 30.2961 78.5026C30.3773 78.692 30.4892 78.8561 30.6317 78.9983C30.7743 79.1397 30.9409 79.2508 31.1295 79.3316C31.3203 79.4124 31.522 79.4545 31.7392 79.4545Z" fill="#8F9AA3"></path>
      <path id="Vector_12" fill-rule="evenodd" clip-rule="evenodd" d="M41.4013 80.7928C41.1053 80.7928 40.8268 80.7381 40.5636 80.6312C40.3004 80.5243 40.0658 80.3694 39.8597 80.1708C39.6492 79.9612 39.4869 79.7247 39.3728 79.4613C39.2588 79.1987 39.1997 78.9175 39.1953 78.6179V75.0021H40.533V78.6095C40.533 78.8409 40.6206 79.0413 40.7938 79.2163C40.9671 79.3805 41.1734 79.4613 41.4103 79.4613C41.5264 79.4613 41.636 79.4368 41.7435 79.3914C41.8487 79.3426 41.9408 79.2795 42.0197 79.2012C42.0987 79.1221 42.1602 79.0303 42.2019 78.926C42.2435 78.8207 42.2654 78.7071 42.2654 78.5876V75.0038H43.6031V78.5809C43.6075 78.8797 43.5548 79.1641 43.4409 79.4326C43.3268 79.7011 43.1711 79.9351 42.9738 80.1337C42.7764 80.3324 42.5439 80.4915 42.2785 80.6093C42.0132 80.7271 41.7282 80.7886 41.4277 80.7953H41.4013V80.7928Z" fill="#8F9AA3"></path>
      <path id="Vector_13" fill-rule="evenodd" clip-rule="evenodd" d="M50.3049 79.2946C50.237 79.3055 50.1668 79.3123 50.0988 79.319C50.0308 79.3232 49.9584 79.33 49.8861 79.3342V80.7911H48.5484V75.0324H49.8861C50.2172 75.0366 50.5286 75.0981 50.8204 75.2134C51.1098 75.3295 51.3642 75.4844 51.5835 75.6763C51.8027 75.8707 51.9738 76.0954 52.0966 76.3538C52.2216 76.6088 52.283 76.8841 52.283 77.1786C52.283 77.4867 52.2173 77.7754 52.0856 78.0397C51.9541 78.3031 51.7699 78.5329 51.5308 78.7273L52.8116 80.7886H51.237L50.3049 79.2946ZM49.8861 77.9959C50.0287 77.9909 50.1647 77.9648 50.294 77.921C50.4234 77.8781 50.5374 77.8183 50.6339 77.7443C50.7326 77.6702 50.8072 77.5852 50.8642 77.4892C50.919 77.3908 50.9475 77.2881 50.9475 77.1786C50.9475 77.0701 50.919 76.9674 50.8642 76.8706C50.8094 76.7772 50.7326 76.6922 50.6339 76.6198C50.5374 76.5457 50.4234 76.4868 50.294 76.443C50.1647 76.3993 50.0287 76.3732 49.8861 76.369V77.9959Z" fill="#8F9AA3"></path>
      <path id="Vector_14" fill-rule="evenodd" clip-rule="evenodd" d="M62.2238 74.9861V76.3185H61.1076V80.7928H59.7699V76.3185H58.6646V74.9861H62.2238Z" fill="#8F9AA3"></path>
      <path id="Vector_15" fill-rule="evenodd" clip-rule="evenodd" d="M70.2653 80.793L70.035 80.0919H68.2082L67.9714 80.793H66.5547L68.5328 75.0107H69.7981L71.6731 80.793H70.2653ZM68.6665 78.7603H69.6074L69.1489 77.3581L68.6665 78.7603Z" fill="#8F9AA3"></path>
      <path id="Vector_16" fill-rule="evenodd" clip-rule="evenodd" d="M80.9409 77.5549V80.7927H79.5966V80.6513C79.4497 80.7035 79.2984 80.7431 79.1427 80.7641C78.987 80.7885 78.8335 80.7995 78.68 80.7995C78.305 80.7995 77.9387 80.7296 77.5813 80.5874C77.2216 80.446 76.9014 80.2339 76.6163 79.9502C76.3313 79.6658 76.1185 79.3476 75.9804 78.9933C75.8401 78.6398 75.7699 78.2753 75.7699 77.9016C75.7699 77.5279 75.8401 77.1635 75.9804 76.8075C76.1207 76.4498 76.3335 76.1308 76.6163 75.8471C76.9014 75.5626 77.2238 75.3514 77.5813 75.2091C77.9409 75.0669 78.3072 74.997 78.68 74.997C79.0549 74.997 79.4212 75.0669 79.7787 75.2091C80.1383 75.3514 80.4585 75.5626 80.7436 75.8471L79.794 76.7923C79.6405 76.6391 79.4673 76.5263 79.2721 76.4497C79.0769 76.3732 78.8795 76.3361 78.6778 76.3361C78.4782 76.3361 78.2787 76.3732 78.0835 76.4497C77.8883 76.5263 77.7151 76.6391 77.5616 76.7923C77.408 76.9455 77.2918 77.118 77.2129 77.3125C77.1339 77.506 77.0945 77.703 77.0945 77.9041C77.0945 78.1028 77.1339 78.3014 77.2129 78.4933C77.2918 78.6877 77.408 78.8603 77.5616 79.0135C77.6997 79.1507 77.8532 79.2559 78.0243 79.3316C78.1954 79.4082 78.3729 79.452 78.555 79.4654C78.737 79.4781 78.9168 79.4612 79.0966 79.4149C79.2764 79.367 79.4409 79.2887 79.5945 79.1793V78.8889H78.4322V77.5565H80.9409V77.5549Z" fill="#8F9AA3"></path>
      <path id="Vector_17" fill-rule="evenodd" clip-rule="evenodd" d="M89.1801 80.7928H85.7211V75.0038H87.0591V79.4613H89.1801V80.7928Z" fill="#8F9AA3"></path>
      <path id="Vector_18" fill-rule="evenodd" clip-rule="evenodd" d="M95.2111 80.7928H93.8751V75.0038H95.2111V80.7928Z" fill="#8F9AA3"></path>
      <path id="Vector_19" fill-rule="evenodd" clip-rule="evenodd" d="M103.498 75.0107H104.835V80.793H103.388L101.489 77.4213V80.793H100.152V75.0259H101.607L103.498 78.3909V75.0107Z" fill="#8F9AA3"></path>
      <path id="Vector_20" fill-rule="evenodd" clip-rule="evenodd" d="M113.36 76.3431H110.969V77.2159H112.908V78.5482H110.969V79.4615H113.36V80.793H109.633V75.0191L113.36 75.0107V76.3431Z" fill="#8F9AA3"></path>
      <path id="Vector_21" fill-rule="evenodd" clip-rule="evenodd" d="M122.421 75.0107H123.756V80.793H122.421V78.6114H120.743V80.793H119.408V75.0107H120.743V77.2799H122.421V75.0107Z" fill="#8F9AA3"></path>
      <path id="Vector_22" fill-rule="evenodd" clip-rule="evenodd" d="M132.219 76.3431H129.829V77.2159H131.767V78.5482H129.829V79.4615H132.219V80.793H128.493V75.0191L132.219 75.0107V76.3431Z" fill="#8F9AA3"></path>
      <path id="Vector_23" fill-rule="evenodd" clip-rule="evenodd" d="M138.812 79.2946C138.744 79.3055 138.673 79.3123 138.605 79.319C138.537 79.3232 138.465 79.33 138.393 79.3342V80.7911H137.055V75.0324H138.393C138.723 75.0366 139.035 75.0981 139.327 75.2134C139.616 75.3295 139.871 75.4844 140.09 75.6763C140.309 75.8707 140.481 76.0954 140.603 76.3538C140.729 76.6088 140.79 76.8841 140.79 77.1786C140.79 77.4867 140.724 77.7754 140.592 78.0397C140.461 78.3031 140.277 78.5329 140.037 78.7273L141.318 80.7886H139.743L138.812 79.2946ZM138.393 77.9959C138.535 77.9909 138.671 77.9648 138.801 77.921C138.93 77.8781 139.044 77.8183 139.14 77.7443C139.239 77.6702 139.314 77.5852 139.37 77.4892C139.426 77.3908 139.454 77.2881 139.454 77.1786C139.454 77.0701 139.426 76.9674 139.37 76.8706C139.316 76.7772 139.239 76.6922 139.14 76.6198C139.044 76.5457 138.93 76.4868 138.801 76.443C138.671 76.3993 138.535 76.3732 138.393 76.369V77.9959Z" fill="#8F9AA3"></path>
      <path id="Vector_24" fill-rule="evenodd" clip-rule="evenodd" d="M149.693 76.3431H147.305V77.2159H149.244V78.5482H147.305V79.4615H149.693V80.793H145.967V75.0191L149.693 75.0107V76.3431Z" fill="#8F9AA3"></path>
      <path id="Vector_25" fill-rule="evenodd" clip-rule="evenodd" d="M26.6843 38.1251H24.2962V39.0008H26.2325V40.3307H24.2962V41.2457H26.6843V42.5755H22.9585V36.8018L26.6843 36.7952V38.1251Z" fill="#8F9AA3"></path>
      <path id="Vector_26" fill-rule="evenodd" clip-rule="evenodd" d="M33.2457 42.687C33.0615 42.687 32.8773 42.6629 32.6953 42.6127C32.5133 42.5625 32.34 42.4861 32.1777 42.3812C31.8926 42.1978 31.6712 41.9598 31.5133 41.6693C31.3554 41.3788 31.2764 41.0579 31.2764 40.7128H32.6142C32.6142 40.8701 32.6492 40.9924 32.7173 41.0797C32.7852 41.1671 32.8466 41.226 32.8993 41.2566C32.9935 41.3199 33.0966 41.3527 33.2085 41.3592C33.3181 41.3636 33.4277 41.3439 33.533 41.2959C33.6076 41.2653 33.6668 41.226 33.7106 41.178C33.7545 41.13 33.7896 41.0841 33.8137 41.0404C33.8378 40.9967 33.851 40.953 33.8576 40.9116C33.8619 40.8701 33.8664 40.8351 33.8664 40.809C33.8664 40.7827 33.8642 40.7478 33.8576 40.7063C33.8532 40.6648 33.8378 40.619 33.8137 40.5731C33.7896 40.5251 33.7567 40.4792 33.7106 40.4355C33.6668 40.3918 33.6054 40.3503 33.533 40.3132C33.476 40.287 33.4124 40.263 33.3466 40.2434C33.2808 40.2215 33.2107 40.1997 33.1361 40.1735C33.0045 40.132 32.8664 40.0839 32.7238 40.0315C32.5813 39.9792 32.4387 39.907 32.2962 39.8197C32.112 39.704 31.9563 39.5598 31.829 39.3873C31.7019 39.2148 31.612 39.027 31.5571 38.8283C31.5023 38.6295 31.4825 38.4222 31.5023 38.2103C31.5198 37.9985 31.5791 37.7932 31.6799 37.5988C31.7743 37.4198 31.8926 37.2648 32.0352 37.1337C32.1777 37.0027 32.3356 36.8979 32.5089 36.8237C32.6821 36.7472 32.8707 36.7014 33.0703 36.6861C33.2699 36.6708 33.4738 36.6882 33.68 36.7407C33.8795 36.7887 34.0615 36.863 34.2238 36.9656C34.3883 37.0683 34.5265 37.1905 34.6449 37.3368C34.7632 37.4809 34.8554 37.6425 34.9168 37.8216C34.9804 38.0006 35.0111 38.1863 35.0111 38.3807H33.68C33.68 38.2606 33.6427 38.1754 33.5659 38.1295C33.4891 38.0814 33.4212 38.0509 33.3641 38.0356C33.3532 38.0356 33.329 38.0312 33.2896 38.0247C33.2502 38.016 33.204 38.016 33.1558 38.0247C33.1054 38.0334 33.0549 38.0509 33.0024 38.0793C32.9497 38.1077 32.908 38.1535 32.8751 38.2169C32.8334 38.2999 32.8247 38.3893 32.851 38.4811C32.8773 38.5728 32.9299 38.6449 33.0089 38.6973C33.0835 38.7388 33.1646 38.7781 33.2545 38.8108C33.3444 38.8458 33.4387 38.8785 33.5396 38.9091C33.6295 38.9353 33.7194 38.9637 33.8115 38.9964C33.9036 39.027 33.9957 39.0642 34.0901 39.1057C34.4365 39.2629 34.7063 39.4944 34.9036 39.7979C35.101 40.1014 35.1997 40.4421 35.1997 40.8133C35.1997 41.1801 35.101 41.5165 34.9036 41.8222C34.7063 42.1257 34.4365 42.3572 34.0901 42.5144C33.9541 42.5777 33.8137 42.6236 33.6712 42.652C33.5308 42.6716 33.3882 42.687 33.2457 42.687Z" fill="#8F9AA3"></path>
      <path id="Vector_27" fill-rule="evenodd" clip-rule="evenodd" d="M43.2501 36.7712V38.1011H42.1339V42.5755H40.7984V38.1011H39.6909V36.7712H43.2501Z" fill="#8F9AA3"></path>
      <path id="Vector_28" fill-rule="evenodd" clip-rule="evenodd" d="M49.123 36.7712C49.5089 36.793 49.8707 36.8848 50.2107 37.0464C50.5505 37.2102 50.8466 37.422 51.0966 37.684C51.3466 37.946 51.544 38.2518 51.6909 38.5968C51.8357 38.944 51.908 39.3131 51.908 39.7083C51.908 40.0971 51.8378 40.4595 51.6953 40.8002C51.5528 41.1386 51.3553 41.4379 51.1054 41.6933C50.8554 41.951 50.5615 42.1563 50.2238 42.3113C49.8861 42.4664 49.5199 42.5537 49.1252 42.5755H47.7874V36.7625H49.1252V36.7712H49.123ZM49.123 41.2369C49.3291 41.2151 49.5199 41.1627 49.6953 41.0754C49.8729 40.988 50.0242 40.8788 50.1536 40.7434C50.283 40.6102 50.3839 40.453 50.4585 40.2739C50.533 40.0949 50.5681 39.907 50.5681 39.7061C50.5681 39.5008 50.5308 39.3065 50.4585 39.1187C50.3839 38.9331 50.2808 38.7672 50.1493 38.623C50.0177 38.4789 49.8642 38.361 49.6909 38.2692C49.5177 38.1776 49.3269 38.1208 49.1207 38.099V41.2369H49.123Z" fill="#8F9AA3"></path>
      <path id="Vector_29" fill-rule="evenodd" clip-rule="evenodd" d="M116.731 41.2457V42.5777H112.846V41.1408C113.233 40.9094 113.581 40.6757 113.895 40.4377C114.208 40.2019 114.476 39.9726 114.698 39.7542C114.919 39.5359 115.09 39.3372 115.21 39.1581C115.331 38.979 115.392 38.8348 115.392 38.7257C115.392 38.5575 115.335 38.4156 115.219 38.2999C115.104 38.1842 114.961 38.1273 114.792 38.1273C114.623 38.1273 114.48 38.1863 114.364 38.3043C114.248 38.42 114.191 38.5641 114.191 38.7344H112.846C112.846 38.4659 112.897 38.2169 113 37.9833C113.103 37.7495 113.244 37.5443 113.419 37.3696C113.597 37.1927 113.801 37.0551 114.035 36.9525C114.269 36.8499 114.522 36.7996 114.789 36.7996C115.059 36.7996 115.309 36.8499 115.544 36.9525C115.776 37.0551 115.982 37.1949 116.158 37.3696C116.333 37.5465 116.472 37.7495 116.574 37.9833C116.675 38.2169 116.728 38.468 116.728 38.7344C116.728 39.4966 116.158 40.3329 115.02 41.2479H116.731V41.2457Z" fill="#8F9AA3"></path>
      <path id="Vector_30" fill-rule="evenodd" clip-rule="evenodd" d="M124.182 36.7866C124.584 36.7866 124.958 36.863 125.311 37.0158C125.665 37.1687 125.971 37.374 126.234 37.6338C126.498 37.8937 126.706 38.1994 126.858 38.5509C127.011 38.9026 127.088 39.2781 127.088 39.6778C127.088 40.0774 127.011 40.453 126.858 40.8046C126.704 41.1561 126.498 41.4618 126.234 41.7217C125.971 41.9816 125.662 42.1869 125.311 42.3397C124.958 42.4925 124.584 42.5691 124.182 42.5691C123.781 42.5691 123.406 42.4925 123.052 42.3397C122.702 42.1869 122.392 41.9816 122.132 41.7217C121.871 41.4618 121.665 41.1561 121.511 40.8046C121.357 40.453 121.281 40.0774 121.281 39.6778C121.281 39.2781 121.357 38.9026 121.511 38.5509C121.665 38.1994 121.871 37.8937 122.132 37.6338C122.392 37.374 122.7 37.1687 123.052 37.0158C123.406 36.863 123.781 36.7866 124.182 36.7866ZM124.186 41.2369C124.403 41.2369 124.606 41.1955 124.796 41.1147C124.987 41.0339 125.152 40.9225 125.294 40.7805C125.436 40.6386 125.548 40.4726 125.63 40.2849C125.71 40.0949 125.752 39.894 125.752 39.6778C125.752 39.4616 125.71 39.2607 125.63 39.0707C125.548 38.8807 125.436 38.7169 125.294 38.575C125.152 38.433 124.984 38.3217 124.796 38.2409C124.607 38.1601 124.403 38.1186 124.186 38.1186C123.97 38.1186 123.767 38.1601 123.577 38.2409C123.386 38.3217 123.221 38.433 123.079 38.575C122.937 38.7169 122.825 38.8829 122.743 39.0707C122.663 39.2607 122.621 39.4616 122.621 39.6778C122.621 39.894 122.663 40.0949 122.743 40.2849C122.825 40.4748 122.937 40.6386 123.079 40.7805C123.221 40.9225 123.388 41.0339 123.577 41.1147C123.767 41.1955 123.97 41.2369 124.186 41.2369Z" fill="#8F9AA3"></path>
      <path id="Vector_31" fill-rule="evenodd" clip-rule="evenodd" d="M135.526 41.2457V42.5777H131.642V41.1408C132.029 40.9094 132.377 40.6757 132.691 40.4377C133.005 40.2019 133.272 39.9726 133.494 39.7542C133.715 39.5359 133.886 39.3372 134.007 39.1581C134.127 38.979 134.188 38.8348 134.188 38.7257C134.188 38.5575 134.132 38.4156 134.015 38.2999C133.899 38.1842 133.757 38.1273 133.588 38.1273C133.419 38.1273 133.276 38.1863 133.16 38.3043C133.044 38.42 132.987 38.5641 132.987 38.7344H131.642C131.642 38.4659 131.693 38.2169 131.796 37.9833C131.899 37.7495 132.04 37.5443 132.215 37.3696C132.392 37.1927 132.597 37.0551 132.831 36.9525C133.066 36.8499 133.318 36.7996 133.585 36.7996C133.856 36.7996 134.105 36.8499 134.34 36.9525C134.572 37.0551 134.779 37.1949 134.954 37.3696C135.129 37.5465 135.268 37.7495 135.371 37.9833C135.472 38.2169 135.524 38.468 135.524 38.7344C135.524 39.4966 134.954 40.3329 133.816 41.2479H135.526V41.2457Z" fill="#8F9AA3"></path>
      <path id="Vector_32" fill-rule="evenodd" clip-rule="evenodd" d="M142.978 36.7866C143.38 36.7866 143.754 36.863 144.108 37.0158C144.461 37.1687 144.767 37.374 145.031 37.6338C145.294 37.8937 145.502 38.1994 145.653 38.5509C145.807 38.9026 145.884 39.2781 145.884 39.6778C145.884 40.0774 145.807 40.453 145.653 40.8046C145.5 41.1561 145.294 41.4618 145.031 41.7217C144.767 41.9816 144.458 42.1869 144.108 42.3397C143.754 42.4925 143.38 42.5691 142.978 42.5691C142.577 42.5691 142.202 42.4925 141.849 42.3397C141.498 42.1869 141.189 41.9816 140.928 41.7217C140.666 41.4618 140.461 41.1561 140.307 40.8046C140.154 40.453 140.077 40.0774 140.077 39.6778C140.077 39.2781 140.154 38.9026 140.307 38.5509C140.461 38.1994 140.666 37.8937 140.928 37.6338C141.189 37.374 141.495 37.1687 141.849 37.0158C142.202 36.863 142.577 36.7866 142.978 36.7866ZM142.982 41.2369C143.2 41.2369 143.401 41.1955 143.592 41.1147C143.783 41.0339 143.947 40.9225 144.09 40.7805C144.232 40.6386 144.345 40.4726 144.425 40.2849C144.507 40.0949 144.548 39.894 144.548 39.6778C144.548 39.4616 144.507 39.2607 144.425 39.0707C144.345 38.8807 144.232 38.7169 144.09 38.575C143.947 38.433 143.781 38.3217 143.592 38.2409C143.401 38.1601 143.2 38.1186 142.982 38.1186C142.766 38.1186 142.564 38.1601 142.373 38.2409C142.182 38.3217 142.018 38.433 141.875 38.575C141.732 38.7169 141.621 38.8829 141.539 39.0707C141.459 39.2607 141.417 39.4616 141.417 39.6778C141.417 39.894 141.459 40.0949 141.539 40.2849C141.621 40.4748 141.732 40.6386 141.875 40.7805C142.018 40.9225 142.184 41.0339 142.373 41.1147C142.564 41.1955 142.766 41.2369 142.982 41.2369Z" fill="#8F9AA3"></path>
      <path id="Vector_33" fill-rule="evenodd" clip-rule="evenodd" d="M102.204 42.687H98.311C98.314 42.5559 98.314 42.4227 98.314 42.2895C98.314 33.417 94.702 25.3832 88.864 19.57C84.0921 14.8182 77.8334 11.5492 70.8422 10.5119L84.0307 0.134895C84.2479 -0.0420053 84.579 -0.0464037 84.8049 0.130496L102.555 14.0955C102.699 14.1937 102.794 14.3509 102.794 14.5278V42.1541C102.794 42.4468 102.529 42.687 102.204 42.687ZM94.881 42.687H91.682C91.684 42.5559 91.684 42.4227 91.684 42.2895C91.684 35.2404 88.814 28.8574 84.1755 24.2388C79.5373 19.6203 73.1272 16.7618 66.0483 16.7618V14.5278C66.0483 14.3771 66.1162 14.2286 66.2522 14.1238L66.932 13.5888C74.5439 13.8181 81.4146 16.9823 86.439 21.9874C91.656 27.1825 94.884 34.3626 94.884 42.2917C94.884 42.4227 94.884 42.5537 94.881 42.687ZM88.25 42.687H85.051C85.053 42.5559 85.055 42.4227 85.055 42.2895C85.055 37.0639 82.9277 32.3317 79.4868 28.9054C76.0483 25.4814 71.2961 23.361 66.0461 23.361V20.1749C72.1777 20.1749 77.7303 22.6513 81.7479 26.6519C85.766 30.6524 88.252 36.1817 88.252 42.2895C88.255 42.4227 88.252 42.5537 88.25 42.687ZM81.6184 42.687H78.4167C78.4211 42.5559 78.4233 42.4227 78.4233 42.2895C78.4233 38.8851 77.0373 35.8038 74.7983 33.5743C72.5593 31.3447 69.4628 29.9646 66.0461 29.9646V26.7786C70.3466 26.7786 74.2413 28.5146 77.0614 31.3229C79.8795 34.1289 81.6251 38.0072 81.6251 42.2917C81.6251 42.4227 81.6229 42.5537 81.6184 42.687ZM74.9869 42.687H71.783C71.7917 42.5559 71.7961 42.4227 71.7961 42.2895C71.7961 40.7085 71.1514 39.2781 70.1119 38.2409C69.0724 37.2058 67.6338 36.5638 66.0461 36.5638V33.3777C68.5176 33.3777 70.7545 34.3757 72.3729 35.9873C73.9912 37.5989 74.9934 39.8284 74.9934 42.2874C74.9956 42.4227 74.9913 42.5537 74.9869 42.687Z" fill="#8F9AA3"></path>
    </g>
  </symbol>
</svg>